<svg width="58" height="62" viewBox="0 0 58 62" fill="none" xmlns="http://www.w3.org/2000/svg">
<path fill-rule="evenodd" clip-rule="evenodd" d="M0.00671692 12.407L0.0134785 12.4001H0L0 51.1451L0 51.1501H0.00483025L0 51.1451L7.74518 43.2239L7.75 43.2289V20.3263L0.00671692 12.407ZM7.75 51.1402L7.74035 51.1501H7.75V51.1402Z" fill="#720601"/>
<rect y="11.6801" width="7.75" height="26.8134" transform="rotate(-45 0 11.6801)" fill="#FE2F24"/>
<path fill-rule="evenodd" clip-rule="evenodd" d="M49.2877 0.0102173L49.298 0.00952395L49.2884 0L18.6 30.6884L19.034 31.1224L29.2409 31.0077L48.4913 11.7573L49.2877 0.0102173Z" fill="#720601"/>
<path fill-rule="evenodd" clip-rule="evenodd" d="M49.6067 0.0110687L49.6135 0L49.6 0L49.6 61.9921L49.6 62H49.6048L49.6 61.9921L57.3452 49.3182L57.35 49.3261V12.6819L49.6067 0.0110687ZM57.35 61.9842L57.3404 62H57.35V61.9842Z" fill="#FE2F24"/>
</svg>
